<svg t="1732807276203" class="icon" viewBox="0 0 1024 1024" version="1.1" xmlns="http://www.w3.org/2000/svg" p-id="5912" width="200" height="200"><path d="M910.189714 0C986.038857 0 1024 37.961143 1024 113.810286v796.379428C1024 986.038857 986.038857 1024 910.189714 1024H113.810286C37.961143 1024 0 986.038857 0 910.189714V113.810286C0 37.961143 37.961143 0 113.810286 0h796.379428z m-49.737143 64H163.547429C97.28 64 64 97.206857 64 163.547429v696.905142c0 66.340571 33.206857 99.547429 99.547429 99.547429h696.905142c66.340571 0 99.547429-33.206857 99.547429-99.547429V163.547429c0-66.340571-33.206857-99.547429-99.547429-99.547429z" fill="#303133" p-id="5913"></path><path d="M599.771429 227.547429H211.236571a24.722286 24.722286 0 0 0-24.283428 25.088v81.481142c0 4.608 3.584 8.411429 8.045714 8.411429h39.936a8.265143 8.265143 0 0 0 8.045714-8.411429v-49.298285h131.291429v450.194285h-69.485714a8.265143 8.265143 0 0 0-8.118857 8.338286v40.96c0 4.681143 3.584 8.411429 8.045714 8.411429h202.386286a8.265143 8.265143 0 0 0 8.118857-8.338286v-40.96a8.265143 8.265143 0 0 0-8.045715-8.411429h-70.290285V284.818286h131.218285v49.298285c0 4.608 3.584 8.411429 8.045715 8.411429h39.936a8.265143 8.265143 0 0 0 8.045714-8.411429V252.562286a24.722286 24.722286 0 0 0-24.283429-25.014857H599.771429z m5.266285 254.610285h223.890286c4.534857 0 8.118857 3.657143 8.118857 8.265143v41.837714a8.265143 8.265143 0 0 1-8.045714 8.338286H605.037714a8.265143 8.265143 0 0 1-8.045714-8.338286v-41.837714c0-4.534857 3.657143-8.338286 8.045714-8.338286v0.073143z m0 123.245715h223.890286c4.534857 0 8.118857 3.730286 8.118857 8.338285v41.837715a8.265143 8.265143 0 0 1-8.045714 8.338285H605.037714a8.265143 8.265143 0 0 1-8.045714-8.338285V613.668571c0-4.608 3.657143-8.338286 8.045714-8.338285z m0 128.731428h223.890286c4.534857 0 8.118857 3.803429 8.118857 8.411429v41.764571a8.265143 8.265143 0 0 1-8.045714 8.338286H605.037714a8.265143 8.265143 0 0 1-8.045714-8.338286v-41.764571c0-4.681143 3.657143-8.411429 8.045714-8.411429z" fill="#303133" p-id="5914"></path></svg>